<svg id="Layer_1" data-name="Layer 1" xmlns="http://www.w3.org/2000/svg" viewBox="0 0 512 512"><title>team-members-outline</title><path d="M384,477.7H128l-.55-.95L0,256,128,34.3H384l.55.95L512,256Zm-253.81-3.79H381.81L507.62,256,381.81,38.09H130.19L4.38,256Z" fill="#1e120d"/><path d="M319.79,323.7H192.21l1.39-4.51c11.14-36.16,31.57-48.76,46.75-53a53.25,53.25,0,0,1,6.34-1.34,41,41,0,0,1,9.55-.41,33.25,33.25,0,0,1,9.64.5c14.07,2.24,39.61,12.26,52.52,54.21Zm-118-7h108.5c-12.14-34.54-33.5-43-45.47-44.86a41.61,41.61,0,0,0-5.09-.51l0,.55-4.12-.5a33.83,33.83,0,0,0-7.89.37,46,46,0,0,0-5.5,1.17C229.34,276.52,212.17,287.05,201.75,316.73Z" fill="#1e120d"/><path d="M256,271.45A34.42,34.42,0,1,1,290.42,237,34.45,34.45,0,0,1,256,271.45Zm0-61.85A27.44,27.44,0,1,0,283.44,237,27.47,27.47,0,0,0,256,209.59Z" fill="#1e120d"/><path d="M383.88,298.15H303.4v-7h70.92c-10.91-30.58-29.9-38.06-40.56-39.76a30.27,30.27,0,0,0-7.46-.4l-.4,0-.42,0a30.68,30.68,0,0,0-7,.33,41.6,41.6,0,0,0-4.92,1c-8.14,2.25-19.79,8.18-29,23.61l-6-3.58C289,255,302.33,248.26,311.7,245.66a48.5,48.5,0,0,1,5.75-1.22,38.39,38.39,0,0,1,8.46-.39,38.8,38.8,0,0,1,9,.48c12.76,2,35.93,11.12,47.63,49.11Z" fill="#1e120d"/><path d="M325.9,251a31.37,31.37,0,1,1,31.37-31.37A31.41,31.41,0,0,1,325.9,251Zm0-55.77a24.4,24.4,0,1,0,24.39,24.4A24.43,24.43,0,0,0,325.9,195.27Z" fill="#1e120d"/><path d="M208.6,298.15H128.12l1.39-4.51c10.08-32.75,28.62-44.16,42.39-48a48.38,48.38,0,0,1,5.75-1.22,37.19,37.19,0,0,1,8.62-.38,30.16,30.16,0,0,1,8.8.47c9,1.43,25.9,7,38.44,28l-6,3.58C217,258.44,203.45,252.93,194,251.42a36.54,36.54,0,0,0-4.18-.44l0,.54-4.13-.5a30.68,30.68,0,0,0-7,.33,41.51,41.51,0,0,0-4.92,1c-11.45,3.17-26.72,12.52-36.08,38.78H208.6Z" fill="#1e120d"/><path d="M186.1,251a31.37,31.37,0,1,1,31.37-31.37A31.4,31.4,0,0,1,186.1,251Zm0-55.77a24.4,24.4,0,1,0,24.39,24.4A24.42,24.42,0,0,0,186.1,195.27Z" fill="#1e120d"/></svg>